<?xml version="1.0" standalone="no"?>
<!DOCTYPE svg PUBLIC "-//W3C//DTD SVG 20010904//EN"
 "http://www.w3.org/TR/2001/REC-SVG-20010904/DTD/svg10.dtd">
<svg version="1.0" xmlns="http://www.w3.org/2000/svg"
 width="512.000000pt" height="512.000000pt" viewBox="0 0 512.000000 512.000000"
 preserveAspectRatio="xMidYMid meet">

<g transform="translate(0.000000,512.000000) scale(0.100000,-0.100000)"
fill="#000000" stroke="none">
<path d="M310 4834 c-145 -39 -257 -153 -295 -300 -14 -54 -15 -209 -13 -1330
l3 -1269 23 -55 c46 -113 129 -196 242 -242 l55 -23 1366 -3 1367 -2 6 -24 c3
-14 42 -181 86 -372 l80 -347 -50 -53 c-70 -74 -93 -130 -94 -224 0 -56 5 -87
21 -122 30 -66 104 -141 166 -169 l52 -24 725 0 c719 0 725 0 771 21 69 32
128 91 161 159 58 123 28 279 -72 369 l-43 39 127 553 c90 392 126 562 121
584 -4 16 -18 39 -32 50 -51 40 -79 31 -326 -116 l-229 -136 -44 43 -44 43 -2
1320 -3 1321 -23 55 c-46 113 -129 196 -242 242 l-55 23 -730 3 c-540 2 -737
0 -758 -9 -30 -13 -57 -55 -57 -89 0 -29 26 -76 47 -86 10 -5 345 -11 744 -14
l726 -5 48 -30 c36 -22 57 -45 77 -84 l28 -53 0 -1196 0 -1196 -72 71 c-76 75
-107 90 -148 75 -14 -6 -119 -105 -235 -221 -119 -121 -215 -209 -222 -207 -7
3 -112 64 -232 136 -246 147 -269 154 -322 101 -34 -34 -36 -63 -14 -156 8
-33 15 -63 15 -67 0 -5 -593 -8 -1319 -8 l-1319 0 -53 28 c-39 20 -62 41 -84
77 l-30 48 -3 1257 -2 1257 28 54 c20 39 41 62 77 84 l48 30 726 5 c399 3 734
9 744 14 21 10 47 57 47 86 0 33 -26 75 -55 88 -19 9 -206 12 -738 11 -594 0
-721 -3 -767 -15z m3950 -3049 c171 -171 212 -206 240 -211 31 -5 55 6 198 92
89 53 164 95 166 93 2 -2 -40 -193 -94 -424 l-97 -420 -624 -3 -624 -2 -97
422 c-53 232 -95 424 -93 426 1 2 77 -40 166 -93 144 -84 168 -96 199 -91 29
5 68 40 240 211 113 113 207 205 210 205 3 0 97 -92 210 -205z m490 -1090 c16
-8 36 -25 44 -37 21 -29 21 -107 0 -136 -37 -53 -20 -52 -747 -52 l-674 0 -34
23 c-48 32 -67 89 -46 139 9 21 30 46 49 58 32 19 49 20 706 20 578 0 677 -2
702 -15z"/>
<path d="M3979 1511 c-29 -29 -29 -30 -29 -151 0 -121 0 -122 29 -151 22 -22
39 -29 68 -29 84 0 106 44 101 200 -3 108 -4 113 -31 136 -41 35 -99 33 -138
-5z"/>
<path d="M2171 4836 c-87 -48 -50 -186 49 -186 51 0 100 49 100 99 0 75 -83
124 -149 87z"/>
<path d="M876 4115 c-19 -18 -26 -34 -26 -63 0 -25 71 -245 195 -603 220 -635
212 -619 305 -619 96 0 86 -19 300 625 105 314 190 583 190 598 0 18 -11 39
-29 58 -38 38 -100 41 -135 6 -17 -17 -66 -152 -172 -470 -82 -246 -151 -447
-155 -447 -3 0 -75 201 -160 446 -109 316 -161 453 -178 470 -33 34 -98 33
-135 -1z"/>
<path d="M2233 4116 l-28 -24 0 -607 0 -607 28 -24 c41 -35 99 -33 138 5 l29
29 0 597 0 597 -29 29 c-39 38 -97 40 -138 5z"/>
<path d="M2794 4117 l-29 -25 0 -607 0 -607 28 -24 c41 -35 99 -33 138 5 l29
29 0 211 0 211 118 0 c144 0 238 19 310 62 283 171 269 580 -26 725 l-76 38
-232 3 -231 3 -29 -24z m474 -196 c46 -24 97 -77 112 -116 30 -80 0 -191 -66
-241 -52 -40 -115 -54 -241 -54 l-113 0 0 215 0 215 135 0 c114 0 142 -3 173
-19z"/>
<path d="M876 2484 c-55 -55 -23 -152 55 -168 41 -8 2537 -8 2578 0 78 16 110
113 55 168 l-27 26 -1317 0 -1317 0 -27 -26z"/>
</g>
</svg>
