<?xml version="1.0" standalone="no"?>
<!DOCTYPE svg PUBLIC "-//W3C//DTD SVG 20010904//EN"
 "http://www.w3.org/TR/2001/REC-SVG-20010904/DTD/svg10.dtd">
<svg version="1.0" xmlns="http://www.w3.org/2000/svg"
 width="512.000000pt" height="512.000000pt" viewBox="0 0 512.000000 512.000000"
 preserveAspectRatio="xMidYMid meet">

<g transform="translate(0.000000,512.000000) scale(0.100000,-0.100000)"
fill="#000000" stroke="none">
<path d="M1648 4889 c-71 -17 -162 -71 -223 -133 -71 -72 -123 -167 -161 -291
-25 -82 -28 -105 -28 -255 -1 -148 2 -176 27 -273 15 -59 41 -141 57 -181 80
-192 280 -401 440 -460 247 -90 509 35 626 299 110 250 84 641 -61 900 -78
139 -230 296 -344 355 -88 44 -237 62 -333 39z m242 -226 c34 -17 83 -55 130
-103 117 -118 173 -226 209 -407 101 -495 -195 -848 -503 -600 -168 135 -266
332 -284 572 -14 177 16 322 89 435 85 132 219 170 359 103z"/>
<path d="M3225 4882 c-80 -24 -110 -41 -199 -112 -229 -182 -358 -473 -360
-810 -1 -194 38 -332 131 -473 125 -188 356 -266 563 -191 160 59 360 268 440
460 16 40 42 122 57 181 25 97 28 125 27 273 0 150 -3 173 -28 255 -59 194
-155 319 -299 390 -70 35 -85 38 -175 41 -73 3 -112 -1 -157 -14z m245 -210
c86 -41 163 -158 195 -297 31 -132 16 -343 -36 -492 -75 -219 -279 -413 -433
-413 -117 0 -224 88 -280 230 -81 206 -49 520 75 726 74 122 201 234 296 260
56 16 132 10 183 -14z"/>
<path d="M451 3768 c-302 -44 -501 -429 -437 -848 46 -300 164 -509 379 -671
106 -80 212 -114 330 -106 101 6 178 34 251 91 230 178 311 528 210 908 -47
178 -134 328 -260 449 -83 79 -150 126 -218 152 -62 23 -182 35 -255 25z m204
-227 c33 -14 79 -52 140 -114 105 -106 160 -204 195 -347 93 -375 -46 -731
-284 -731 -78 0 -127 16 -193 64 -195 145 -303 382 -303 664 0 248 96 434 250
484 41 14 143 3 195 -20z"/>
<path d="M4545 3769 c-100 -9 -162 -32 -241 -88 -230 -162 -367 -411 -405
-734 -39 -337 97 -657 326 -763 147 -69 330 -53 471 40 169 112 306 302 367
506 44 145 51 199 51 355 -1 176 -19 259 -86 395 -75 153 -216 266 -358 287
-30 5 -86 5 -125 2z m162 -227 c213 -109 270 -544 113 -867 -54 -112 -121
-194 -213 -262 -66 -48 -115 -64 -193 -64 -228 0 -367 323 -293 684 42 206
133 355 293 479 77 59 209 73 293 30z"/>
<path d="M2390 3041 c-153 -34 -290 -91 -425 -179 -466 -300 -955 -929 -1169
-1503 -115 -311 -97 -564 58 -797 153 -231 399 -363 676 -364 225 -1 365 52
805 306 99 58 179 89 225 89 46 0 126 -31 225 -89 440 -254 580 -307 805 -306
277 1 523 133 676 364 155 233 173 486 58 797 -224 600 -759 1272 -1230 1541
-237 136 -496 187 -704 141z m329 -206 c396 -94 864 -532 1226 -1148 124 -213
224 -459 245 -608 37 -254 -108 -511 -351 -623 -91 -42 -157 -56 -258 -56
-155 0 -299 56 -641 250 -359 203 -401 203 -760 0 -342 -194 -486 -250 -641
-250 -101 0 -167 14 -258 56 -243 112 -388 369 -351 623 21 149 121 395 245
608 357 607 814 1040 1209 1143 88 23 246 26 335 5z"/>
<path d="M2312 2535 c-52 -23 -62 -60 -62 -240 l0 -155 -157 0 c-256 0 -256 1
-251 -330 4 -294 -4 -283 240 -288 l166 -4 4 -166 c5 -246 -7 -237 308 -237
315 0 303 -9 308 237 l4 166 166 4 c244 5 236 -6 240 288 5 331 5 330 -250
330 l-158 0 0 155 c0 257 2 255 -312 255 -162 -1 -221 -4 -246 -15z m348 -352
c0 -246 6 -252 258 -252 l152 -1 0 -100 0 -100 -155 0 c-249 0 -255 -6 -255
-255 l0 -155 -100 0 -100 0 0 155 c0 249 -6 255 -255 255 l-155 0 0 100 0 100
153 1 c251 0 257 6 257 252 l0 157 100 0 100 0 0 -157z"/>
<path d="M1191 1307 c-13 -6 -34 -25 -45 -40 -19 -25 -21 -42 -21 -150 1 -185
49 -313 149 -403 102 -93 216 -129 372 -121 153 9 194 32 194 112 0 82 -50
112 -158 93 -59 -10 -79 -9 -138 5 -97 24 -136 53 -174 130 -35 72 -50 153
-42 243 5 70 -5 97 -51 124 -37 23 -53 24 -86 7z"/>
</g>
</svg>
