<?xml version="1.0" standalone="no"?>
<!DOCTYPE svg PUBLIC "-//W3C//DTD SVG 20010904//EN"
 "http://www.w3.org/TR/2001/REC-SVG-20010904/DTD/svg10.dtd">
<svg version="1.0" xmlns="http://www.w3.org/2000/svg"
 width="512.000000pt" height="512.000000pt" viewBox="0 0 512.000000 512.000000"
 preserveAspectRatio="xMidYMid meet">

<g transform="translate(0.000000,512.000000) scale(0.100000,-0.100000)"
fill="#000000" stroke="none">
<path d="M2455 4634 c-104 -23 -235 -75 -324 -129 l-80 -48 20 -28 c57 -80
-20 -123 -91 -50 -69 71 -159 77 -334 21 -50 -16 -128 -38 -174 -51 -49 -12
-96 -32 -113 -46 -19 -17 -66 -100 -138 -247 -78 -158 -124 -238 -160 -281
-77 -91 -83 -108 -71 -214 17 -155 78 -326 167 -475 20 -33 73 -99 118 -146
117 -122 186 -207 235 -289 47 -79 67 -95 105 -85 34 8 50 42 75 160 31 144
36 345 15 588 -18 210 -15 272 16 393 24 96 57 158 130 245 74 88 106 148 122
231 11 54 17 63 41 72 40 14 69 -22 60 -74 -18 -110 -55 -186 -140 -286 -30
-36 -53 -65 -49 -65 3 0 25 10 48 22 34 18 58 23 127 23 78 0 90 -3 148 -34
85 -46 183 -151 211 -226 30 -81 36 -156 17 -243 -22 -103 -53 -167 -157 -314
-110 -155 -168 -263 -209 -385 -59 -177 -48 -310 34 -422 64 -87 180 -119 281
-77 98 41 188 141 197 219 3 26 -1 30 -48 48 -100 38 -179 132 -190 225 -12
100 31 184 115 227 50 25 64 27 170 27 101 0 123 -3 167 -24 132 -62 165 -236
69 -362 -31 -41 -107 -92 -147 -101 -32 -6 -34 -19 -13 -90 29 -99 155 -185
270 -185 103 0 174 52 228 169 31 68 30 218 -1 321 -33 106 -121 272 -207 392
-143 197 -177 280 -178 425 0 130 25 189 117 281 39 39 96 84 126 100 48 25
66 29 140 29 68 0 94 -5 129 -23 25 -12 46 -21 47 -19 2 2 -22 32 -53 67 -71
82 -123 189 -130 269 -6 67 5 91 42 91 31 0 43 -18 55 -80 15 -80 50 -148 114
-220 63 -71 117 -171 141 -265 25 -96 28 -198 11 -388 -21 -238 -20 -370 4
-514 28 -163 44 -208 80 -223 40 -17 61 -2 106 72 54 91 86 130 201 251 145
151 212 262 278 460 35 105 62 270 51 313 -4 14 -34 57 -67 97 -47 56 -85 121
-169 292 -60 121 -120 231 -134 244 -26 24 -242 94 -397 128 -107 24 -171 9
-234 -53 -46 -45 -66 -48 -92 -16 -18 22 -16 34 11 75 l24 36 -68 40 c-75 45
-185 91 -276 117 -85 24 -326 28 -419 8z m27 -604 c68 -56 125 -226 92 -277
-32 -50 -79 -20 -93 59 -12 68 -43 133 -71 148 -29 15 -36 56 -15 80 25 27 44
25 87 -10z m382 14 c25 -25 19 -57 -19 -94 -36 -35 -65 -107 -65 -160 0 -66
-91 -80 -98 -15 -11 89 46 218 118 268 30 21 44 21 64 1z m-596 -1486 c18 -18
14 -53 -8 -73 -17 -15 -24 -16 -45 -7 -32 15 -41 37 -27 68 13 27 58 34 80 12z
m782 -38 c24 -24 24 -29 4 -58 -17 -24 -53 -29 -72 -10 -17 17 -15 54 4 72 21
21 40 20 64 -4z m-602 -118 c6 -9 9 -25 6 -36 -17 -55 -94 -46 -94 10 0 50 56
66 88 26z m460 -4 c7 -7 12 -21 12 -33 0 -29 -19 -45 -52 -45 -36 0 -56 36
-39 69 13 23 59 29 79 9z m-674 -71 c8 -23 6 -31 -12 -49 -18 -19 -25 -20 -47
-10 -32 15 -41 36 -26 68 9 21 17 25 43 22 25 -2 35 -9 42 -31z m856 14 c16
-31 12 -49 -15 -67 -23 -15 -27 -15 -50 0 -43 28 -26 86 25 86 19 0 33 -7 40
-19z"/>
<path d="M1962 3754 c-56 -28 -131 -105 -159 -164 -15 -33 -15 -48 0 -250 10
-118 17 -255 17 -305 0 -86 2 -95 56 -225 30 -74 58 -143 61 -152 9 -30 19
-20 32 32 22 84 125 279 219 413 100 141 125 190 149 280 30 120 1 219 -92
306 -99 94 -186 114 -283 65z m209 -219 c42 -27 99 -130 99 -177 0 -33 -14
-40 -110 -57 -78 -14 -140 0 -197 46 -19 15 -47 35 -62 44 -54 32 -26 95 64
141 85 44 143 45 206 3z"/>
<path d="M2038 3458 c-16 -5 -28 -14 -28 -19 0 -17 87 -50 115 -43 33 8 32 17
-6 48 -33 28 -40 29 -81 14z"/>
<path d="M3115 3761 c-54 -24 -142 -105 -166 -152 -70 -138 -37 -283 110 -488
125 -173 182 -279 231 -426 l24 -70 32 70 c17 39 46 110 63 158 27 77 31 102
31 190 0 56 7 174 15 262 22 238 21 263 -15 318 -88 132 -218 187 -325 138z
m137 -205 c54 -16 133 -68 149 -98 13 -25 -3 -68 -25 -68 -9 0 -30 -13 -48
-29 -70 -60 -124 -75 -223 -59 -107 18 -121 38 -86 120 26 60 68 108 116 129
48 22 59 23 117 5z"/>
<path d="M3147 3438 l-32 -32 28 -7 c41 -11 117 16 117 41 0 8 -54 30 -72 30
-5 0 -24 -14 -41 -32z"/>
<path d="M2493 2799 c-91 -58 -56 -202 62 -258 57 -27 107 -27 162 0 86 41
127 143 89 217 -26 50 -61 62 -178 62 -87 0 -108 -4 -135 -21z"/>
<path d="M4743 2769 c-23 -11 -51 -35 -63 -52 -12 -18 -72 -165 -134 -327
-103 -270 -111 -297 -98 -317 7 -12 11 -30 8 -41 -4 -10 -84 -80 -179 -155
-94 -75 -210 -175 -257 -222 -87 -88 -113 -100 -144 -69 -24 24 -20 38 28 94
56 65 129 130 294 263 131 104 132 106 110 121 -64 41 -164 44 -236 7 -21 -11
-117 -88 -213 -171 -96 -83 -196 -165 -224 -181 -27 -16 -100 -45 -160 -64
-175 -55 -289 -137 -376 -269 -53 -80 -77 -149 -95 -274 -9 -59 -22 -125 -30
-147 -12 -36 -12 -42 4 -56 9 -9 125 -112 256 -229 205 -181 241 -210 247
-194 5 11 33 98 64 194 31 96 67 192 80 212 31 47 52 61 388 257 153 90 302
183 332 207 62 51 131 137 168 210 21 42 327 1176 327 1213 0 18 -52 13 -97
-10z"/>
<path d="M283 2700 c3 -13 99 -276 213 -584 218 -588 236 -628 329 -721 81
-82 132 -111 490 -277 262 -122 349 -167 378 -196 28 -28 58 -85 122 -232 47
-107 87 -195 89 -197 2 -3 365 387 444 479 l32 36 -20 53 c-12 28 -30 91 -41
138 -27 115 -78 217 -150 295 -105 114 -211 171 -389 206 -55 12 -125 31 -154
44 -29 13 -144 88 -255 166 -112 79 -220 149 -240 156 -62 22 -131 17 -191
-13 -30 -16 -55 -32 -57 -38 -1 -5 61 -50 139 -99 233 -147 368 -257 368 -300
0 -57 -54 -61 -113 -8 -77 71 -145 119 -337 242 -173 111 -190 125 -190 150 0
16 4 32 10 35 6 3 -57 140 -145 316 -141 279 -160 312 -196 336 -25 16 -59 28
-91 31 -49 5 -51 4 -45 -18z"/>
<path d="M4445 2576 c-49 -21 -62 -45 -129 -218 l-63 -164 46 -17 c25 -9 49
-13 53 -9 7 8 158 403 158 415 0 11 -32 8 -65 -7z"/>
<path d="M736 2338 c58 -117 107 -214 109 -216 1 -1 22 8 46 20 24 13 45 24
47 24 8 4 -159 322 -179 341 -28 25 -70 43 -105 43 -23 0 -19 -10 82 -212z"/>
<path d="M4174 2381 c-54 -24 -105 -86 -131 -159 l-21 -60 36 13 c20 7 50 17
66 21 24 8 33 21 62 99 19 50 33 93 31 97 -1 4 -20 -1 -43 -11z"/>
<path d="M950 2376 c0 -3 21 -48 47 -100 l46 -94 46 -6 c25 -3 57 -8 69 -12
l24 -7 -27 54 c-41 80 -62 106 -108 133 -43 25 -97 43 -97 32z"/>
<path d="M2580 2191 c-30 -31 -81 -69 -113 -86 l-57 -30 41 -18 c105 -44 260
-45 370 0 l43 17 -42 17 c-53 23 -146 93 -169 128 l-18 27 -55 -55z"/>
</g>
</svg>
