<?xml version="1.0" standalone="no"?>
<!DOCTYPE svg PUBLIC "-//W3C//DTD SVG 20010904//EN"
 "http://www.w3.org/TR/2001/REC-SVG-20010904/DTD/svg10.dtd">
<svg version="1.0" xmlns="http://www.w3.org/2000/svg"
 width="512.000000pt" height="432.000000pt" viewBox="0 0 512.000000 432.000000"
 preserveAspectRatio="xMidYMid meet">

<g transform="translate(0.000000,432.000000) scale(0.100000,-0.100000)"
fill="#000000" stroke="none">
<path d="M1646 4304 c-87 -21 -170 -70 -232 -136 -69 -75 -70 -78 -204 -414
-62 -153 -114 -281 -116 -283 -2 -2 -173 -32 -380 -67 -427 -72 -457 -81 -560
-177 -70 -65 -117 -145 -139 -238 -22 -95 -22 -2522 0 -2617 22 -91 60 -158
129 -228 70 -69 137 -107 228 -129 95 -22 4281 -22 4376 0 91 22 158 60 228
129 69 70 107 137 129 228 22 95 22 2522 0 2617 -22 93 -69 173 -139 238 -103
96 -133 105 -560 177 -207 35 -378 65 -380 67 -2 2 -54 130 -116 283 -134 336
-135 339 -204 414 -64 68 -145 115 -237 137 -92 21 -1732 21 -1823 -1z m1777
-318 c18 -7 42 -25 55 -38 12 -14 89 -191 170 -394 l148 -369 453 -76 c477
-81 479 -81 525 -143 21 -27 21 -30 21 -1286 0 -1256 0 -1259 -21 -1286 -11
-15 -33 -37 -48 -48 l-27 -21 -2139 0 -2139 0 -27 21 c-15 11 -37 33 -48 48
-21 27 -21 30 -21 1286 0 1256 0 1259 21 1286 46 62 48 62 525 143 l453 76
148 369 c81 203 158 380 170 394 49 53 21 51 916 52 684 0 838 -2 865 -14z"/>
<path d="M2405 3190 c-482 -62 -904 -404 -1054 -855 -52 -156 -66 -244 -65
-415 0 -359 120 -649 373 -901 252 -253 544 -373 901 -373 357 0 649 120 901
373 253 252 373 542 373 901 1 170 -13 259 -64 412 -116 346 -390 635 -737
775 -181 73 -440 107 -628 83z m373 -334 c104 -26 217 -74 299 -128 161 -105
308 -281 371 -444 58 -151 66 -196 66 -364 0 -167 -8 -213 -65 -362 -90 -232
-313 -451 -549 -537 -130 -47 -180 -55 -340 -55 -160 0 -210 8 -340 55 -221
81 -433 277 -530 493 -84 186 -111 401 -72 586 81 390 363 676 752 761 101 23
306 20 408 -5z"/>
<path d="M2435 2545 c-95 -21 -167 -52 -242 -104 -151 -106 -247 -271 -269
-459 -8 -75 6 -115 47 -132 59 -25 109 20 109 98 0 98 50 210 131 297 85 91
217 155 321 155 78 0 123 50 99 109 -22 51 -79 62 -196 36z"/>
</g>
</svg>
