<?xml version="1.0" standalone="no"?>
<!DOCTYPE svg PUBLIC "-//W3C//DTD SVG 20010904//EN"
 "http://www.w3.org/TR/2001/REC-SVG-20010904/DTD/svg10.dtd">
<svg version="1.0" xmlns="http://www.w3.org/2000/svg"
 width="360.000000pt" height="355.000000pt" viewBox="0 0 360.000000 355.000000"
 preserveAspectRatio="xMidYMid meet">

<g transform="translate(0.000000,355.000000) scale(0.100000,-0.100000)"
fill="#000000" stroke="none">
<path d="M1224 3540 c-71 -15 -137 -52 -194 -110 -94 -93 -134 -213 -110 -333
59 -307 417 -426 645 -216 117 108 152 268 94 425 -31 81 -131 182 -211 212
-66 25 -165 35 -224 22z"/>
<path d="M985 2788 c-134 -17 -315 -100 -470 -216 -176 -130 -483 -459 -504
-540 -18 -63 8 -127 64 -162 30 -18 47 -22 93 -18 57 5 57 5 127 84 115 130
347 360 352 348 2 -6 -24 -139 -57 -295 -68 -314 -71 -359 -30 -443 l23 -49
-18 -291 -18 -291 -128 -333 c-96 -249 -129 -345 -129 -378 0 -125 111 -212
233 -183 95 22 105 40 261 444 l139 360 12 178 c7 98 15 180 17 183 3 2 54
-73 115 -168 l109 -173 93 -340 c51 -187 100 -356 108 -375 62 -151 268 -156
343 -9 11 21 20 56 20 77 0 21 -47 210 -105 420 l-105 382 -157 248 c-87 136
-157 256 -157 267 1 23 135 638 140 644 2 3 21 -15 41 -40 119 -141 268 -273
433 -385 100 -67 141 -78 204 -54 24 9 38 -4 238 -213 319 -332 550 -566 581
-589 l28 -20 28 26 27 26 -412 417 -412 416 5 57 c7 79 -10 106 -109 176 -194
135 -320 257 -515 499 -66 83 -145 173 -175 201 -100 94 -201 129 -333 112z"/>
<path d="M3185 1245 c-14 -13 -25 -31 -25 -40 0 -26 -48 -113 -131 -237 l-79
-117 151 -86 151 -85 33 29 33 29 58 -20 c63 -21 114 -19 165 7 30 16 59 61
59 93 0 29 -47 70 -122 108 -49 25 -75 46 -98 79 -17 24 -46 56 -64 70 -31 24
-33 29 -28 70 6 55 -11 99 -44 114 -33 14 -31 15 -59 -14z"/>
<path d="M2257 913 c-40 -46 -23 -86 68 -157 l75 -59 0 -149 0 -150 -67 -127
c-60 -114 -67 -132 -58 -157 6 -16 23 -35 38 -44 46 -26 71 -2 145 138 l65
124 62 -109 c69 -121 104 -163 135 -163 27 0 70 43 70 71 0 12 -29 70 -64 130
l-65 109 220 0 219 0 0 -130 c0 -126 1 -132 25 -155 13 -14 33 -25 45 -25 12
0 32 11 45 25 l25 24 0 258 -1 258 -163 93 -162 92 -216 0 -215 0 -76 60 c-80
64 -120 76 -150 43z"/>
</g>
</svg>
