<?xml version="1.0" standalone="no"?>
<!DOCTYPE svg PUBLIC "-//W3C//DTD SVG 20010904//EN"
 "http://www.w3.org/TR/2001/REC-SVG-20010904/DTD/svg10.dtd">
<svg version="1.0" xmlns="http://www.w3.org/2000/svg"
 width="512.000000pt" height="512.000000pt" viewBox="0 0 512.000000 512.000000"
 preserveAspectRatio="xMidYMid meet">

<g transform="translate(0.000000,512.000000) scale(0.100000,-0.100000)"
fill="#000000" stroke="none">
<path d="M3625 5072 c-57 -27 -101 -67 -133 -121 -24 -40 -27 -56 -27 -131 0
-145 48 -217 249 -379 163 -131 163 -131 216 -131 44 0 54 6 201 123 207 165
261 245 262 387 1 78 -24 138 -78 192 -58 58 -98 73 -190 73 -68 0 -89 -4
-139 -29 l-59 -29 -56 28 c-75 37 -187 45 -246 17z m221 -177 c76 -50 93 -52
148 -11 84 63 154 73 205 31 35 -30 55 -82 45 -121 -19 -80 -62 -129 -223
-258 l-95 -75 -125 103 c-141 114 -191 180 -191 249 0 79 46 127 121 127 38 0
58 -8 115 -45z"/>
<path d="M2458 4269 c-53 -27 -2345 -2010 -2390 -2066 -157 -198 -25 -483 232
-500 102 -8 155 17 302 144 l123 106 5 -507 5 -508 24 -19 c30 -25 62 -24 95
2 l26 20 0 573 0 573 840 727 840 726 840 -726 840 -727 -2 -951 -3 -951 -847
-3 -848 -2 0 755 0 754 -30 34 c-16 19 -42 40 -58 46 -20 8 -158 11 -489 9
-446 -3 -462 -4 -489 -23 -15 -11 -35 -36 -45 -55 -18 -33 -19 -74 -19 -778
l0 -742 -262 2 -263 3 -3 237 -2 237 -27 20 c-32 26 -64 27 -94 2 -24 -19 -24
-22 -27 -243 -4 -268 -1 -298 40 -344 61 -69 -88 -64 1788 -64 1238 0 1707 3
1723 11 28 15 76 58 90 84 9 15 13 263 17 924 l5 904 119 -103 c134 -115 182
-141 276 -147 254 -18 418 273 274 486 -13 20 -167 160 -341 311 l-318 276 -3
489 -2 489 32 33 33 34 0 152 c0 136 -2 155 -20 179 -42 58 -44 58 -517 58
-392 0 -436 -2 -467 -18 -62 -31 -75 -60 -79 -177 -6 -147 2 -187 44 -232 34
-36 35 -38 32 -111 l-3 -75 -113 97 c-123 105 -146 113 -187 71 -30 -29 -32
-64 -6 -96 11 -13 415 -366 900 -784 954 -824 929 -799 918 -891 -12 -108
-134 -177 -229 -128 -17 9 -365 305 -772 657 -408 353 -869 752 -1024 887
-156 135 -297 253 -314 264 -16 10 -47 19 -68 19 -21 0 -52 -9 -68 -19 -16
-11 -490 -418 -1054 -905 -563 -488 -1038 -894 -1055 -903 -96 -49 -218 19
-230 128 -11 91 -35 68 918 891 484 418 1009 871 1167 1008 260 225 289 247
322 247 32 0 54 -15 193 -135 169 -145 195 -157 237 -115 35 35 26 80 -22 126
-92 87 -271 235 -308 254 -53 27 -151 27 -202 -1z m1862 -294 l0 -85 -395 0
-395 0 0 85 0 85 395 0 395 0 0 -85z m-70 -646 c0 -244 -4 -409 -9 -407 -5 2
-149 124 -320 272 l-311 269 0 138 0 139 320 0 320 0 0 -411z m-1860 -2419 l0
-720 -415 0 -415 0 0 720 0 720 415 0 415 0 0 -720z"/>
<path d="M1682 957 c-20 -21 -22 -34 -22 -131 0 -100 2 -108 25 -131 27 -28
42 -30 79 -14 38 18 48 56 44 164 -3 87 -5 99 -27 116 -32 26 -73 24 -99 -4z"/>
<path d="M2830 1762 c-22 -12 -44 -35 -58 -63 l-23 -44 3 -417 c3 -403 4 -417
24 -444 11 -15 33 -37 48 -48 27 -21 38 -21 566 -21 528 0 539 0 566 21 15 11
37 33 48 48 20 27 21 41 24 444 3 417 2 417 -20 461 -43 84 -21 81 -618 81
-489 0 -528 -1 -560 -18z m490 -282 l0 -150 -210 0 -210 0 0 150 0 150 210 0
210 0 0 -150z m560 0 l0 -150 -205 0 -205 0 0 150 0 150 205 0 205 0 0 -150z
m-565 -455 l0 -150 -205 0 -205 0 -3 140 c-1 76 0 145 2 152 4 11 48 13 208
11 l203 -3 0 -150z m560 0 l0 -150 -202 -3 -203 -2 0 155 0 155 203 -2 202 -3
0 -150z"/>
</g>
</svg>
