<?xml version="1.0" standalone="no"?>
<!DOCTYPE svg PUBLIC "-//W3C//DTD SVG 20010904//EN"
 "http://www.w3.org/TR/2001/REC-SVG-20010904/DTD/svg10.dtd">
<svg version="1.0" xmlns="http://www.w3.org/2000/svg"
 width="512.000000pt" height="512.000000pt" viewBox="0 0 512.000000 512.000000"
 preserveAspectRatio="xMidYMid meet">

<g transform="translate(0.000000,512.000000) scale(0.100000,-0.100000)"
fill="#000000" stroke="none">
<path d="M2472 5105 c-23 -7 -55 -21 -70 -31 -52 -34 -1317 -1027 -1334 -1048
-10 -12 -18 -38 -18 -59 0 -73 78 -120 143 -85 12 6 310 237 662 513 352 276
651 507 664 514 33 18 86 7 129 -26 21 -15 507 -396 1082 -847 575 -450 1057
-828 1072 -840 67 -52 72 -133 12 -186 -50 -43 -98 -41 -161 7 -26 20 -495
387 -1041 815 -546 429 -1007 784 -1024 790 -23 8 -37 7 -62 -5 -17 -8 -436
-334 -931 -722 -495 -389 -957 -752 -1028 -807 -97 -76 -136 -101 -166 -105
-91 -12 -158 78 -119 162 6 14 80 80 163 145 167 130 185 154 165 214 -14 42
-48 66 -94 66 -27 0 -51 -12 -103 -52 -173 -132 -257 -203 -284 -241 -91 -126
-70 -313 48 -416 53 -47 136 -81 198 -81 l45 0 2 -1272 3 -1273 25 -50 c31
-64 92 -124 155 -156 l50 -24 1910 0 1910 0 52 27 c68 36 120 90 152 158 l26
55 3 1268 2 1267 38 0 c113 0 221 69 273 176 28 57 33 78 33 139 0 60 -5 82
-31 136 -18 35 -45 76 -60 90 -26 24 -1967 1548 -2167 1701 -123 94 -214 118
-324 83z m1087 -1485 l951 -745 0 -1283 c0 -1376 2 -1321 -50 -1367 -21 -19
-38 -20 -366 -23 l-344 -3 0 46 c0 62 -40 105 -97 105 -62 -1 -103 -46 -103
-114 l0 -36 -985 0 -986 0 3 593 c4 655 2 629 74 799 73 176 236 362 400 461
96 57 241 110 346 127 122 20 322 8 433 -25 282 -83 501 -272 625 -538 64
-137 81 -217 88 -423 7 -194 10 -202 65 -230 38 -20 80 -10 112 28 24 28 25
34 25 168 0 162 -12 260 -46 379 -124 425 -497 760 -932 836 -110 19 -306 19
-418 0 -473 -83 -857 -459 -953 -932 -20 -95 -21 -135 -21 -672 l0 -571 -331
0 c-281 0 -336 2 -364 16 -69 33 -65 -58 -65 1371 l0 1288 972 762 c965 757
972 762 994 745 13 -9 451 -352 973 -762z"/>
<path d="M1719 3507 c-68 -29 -105 -54 -151 -105 -90 -99 -116 -239 -71 -373
15 -43 15 -50 -2 -90 -26 -64 -24 -187 5 -262 28 -76 110 -164 187 -202 53
-28 67 -30 163 -30 93 0 111 3 162 27 68 32 146 106 173 165 l20 42 357 1 356
0 30 -53 c36 -63 92 -116 164 -154 48 -25 63 -28 158 -28 93 0 112 3 162 27
131 61 210 180 216 323 3 59 -1 95 -15 135 -17 53 -17 57 0 105 13 37 16 73
14 136 -3 73 -8 96 -35 151 -38 78 -101 139 -180 176 -50 24 -70 27 -157 27
-87 0 -107 -3 -156 -26 -73 -34 -134 -90 -171 -156 l-30 -53 -356 0 -357 0
-20 42 c-29 60 -101 130 -169 163 -50 24 -75 30 -150 32 -78 3 -99 0 -147 -20z
m210 -191 c46 -24 90 -82 98 -129 4 -26 17 -52 34 -69 l27 -28 477 0 476 0 24
24 c13 13 27 37 30 53 23 104 88 163 179 163 140 -1 221 -145 151 -269 -32
-55 -32 -104 0 -156 47 -75 28 -179 -42 -232 -49 -38 -133 -43 -192 -14 -42
22 -77 66 -87 111 -12 54 -28 82 -55 95 -23 13 -106 15 -493 15 l-465 0 -26
-22 c-16 -14 -30 -41 -36 -68 -21 -95 -87 -150 -178 -150 -60 0 -98 17 -135
60 -51 62 -55 137 -10 216 13 22 24 53 24 69 0 16 -11 47 -24 69 -13 23 -26
56 -30 75 -13 70 29 151 96 184 41 21 120 22 157 3z"/>
<path d="M3587 726 c-51 -48 -45 -114 14 -154 43 -30 84 -24 122 18 19 21 27
41 27 66 0 81 -104 125 -163 70z"/>
<path d="M768 3791 c-27 -24 -33 -36 -33 -71 0 -35 6 -47 33 -71 36 -32 69
-36 112 -14 35 18 50 43 50 85 0 42 -15 67 -50 85 -43 22 -76 18 -112 -14z"/>
</g>
</svg>
